REM DIRINDEX 1\5,1\2\6,1\2\7,1\3\8,1\3\9,1\4\10,1\4\11,1\4\12
REM DIRNAME folder01,folder02,folder03,folder04,folder05,folder06,folder07,folder08,folder09,folder10,folder11,folder12
TITLE ""
FILE "EJE_DB3000_5th_2A_37.mp3" MP3
  TRACK 01 AUDIO
    TITLE "0:"
    INDEX 01 00:00:00
  TRACK 02 AUDIO
    TITLE "10:cjc026_07869"
    INDEX 01 00:00:05
  TRACK 03 AUDIO
    TITLE "0:"
    INDEX 01 00:00:66
  TRACK 04 AUDIO
    TITLE "11:cjc026_07870"
    INDEX 01 00:01:17
  TRACK 05 AUDIO
    TITLE "0:"
    INDEX 01 00:02:14
  TRACK 06 AUDIO
    TITLE "12:cjc026_07871"
    INDEX 01 00:02:40
  TRACK 07 AUDIO
    TITLE "0:"
    INDEX 01 00:03:25
  TRACK 08 AUDIO
    TITLE "10:cjc026_07872"
    INDEX 01 00:03:53
  TRACK 09 AUDIO
    TITLE "0:"
    INDEX 01 00:04:42
  TRACK 10 AUDIO
    TITLE "11:cjc026_07873"
    INDEX 01 00:04:68
  TRACK 11 AUDIO
    TITLE "0:"
    INDEX 01 00:05:57
  TRACK 12 AUDIO
    TITLE "12:cjc026_07874"
    INDEX 01 00:06:10
  TRACK 13 AUDIO
    TITLE "0:"
    INDEX 01 00:07:00
  TRACK 14 AUDIO
    TITLE "10:cjc026_07875"
    INDEX 01 00:07:25
  TRACK 15 AUDIO
    TITLE "0:"
    INDEX 01 00:08:13
  TRACK 16 AUDIO
    TITLE "11:cjc026_07876"
    INDEX 01 00:08:40
  TRACK 17 AUDIO
    TITLE "0:"
    INDEX 01 00:09:28
  TRACK 18 AUDIO
    TITLE "12:cjc026_07877"
    INDEX 01 00:09:53
  TRACK 19 AUDIO
    TITLE "0:"
    INDEX 01 00:10:39
  TRACK 20 AUDIO
    TITLE "10:cjc026_07878"
    INDEX 01 00:10:68
  TRACK 21 AUDIO
    TITLE "0:"
    INDEX 01 00:11:52
  TRACK 22 AUDIO
    TITLE "11:cjc026_07879"
    INDEX 01 00:12:05
  TRACK 23 AUDIO
    TITLE "0:"
    INDEX 01 00:13:00
  TRACK 24 AUDIO
    TITLE "12:cjc026_07880"
    INDEX 01 00:13:26
  TRACK 25 AUDIO
    TITLE "0:"
    INDEX 01 00:14:09
  TRACK 26 AUDIO
    TITLE "10:cjc026_07881"
    INDEX 01 00:14:39
  TRACK 27 AUDIO
    TITLE "0:"
    INDEX 01 00:15:23
  TRACK 28 AUDIO
    TITLE "11:cjc026_07882"
    INDEX 01 00:15:52
  TRACK 29 AUDIO
    TITLE "0:"
    INDEX 01 00:16:46
  TRACK 30 AUDIO
    TITLE "12:cjc026_07883"
    INDEX 01 00:16:73
  TRACK 31 AUDIO
    TITLE "0:"
    INDEX 01 00:17:57
  TRACK 32 AUDIO
    TITLE "10:cjc026_07884"
    INDEX 01 00:18:13
  TRACK 33 AUDIO
    TITLE "0:"
    INDEX 01 00:19:09
  TRACK 34 AUDIO
    TITLE "11:cjc026_07885"
    INDEX 01 00:19:38
  TRACK 35 AUDIO
    TITLE "0:"
    INDEX 01 00:20:37
  TRACK 36 AUDIO
    TITLE "12:cjc026_07886"
    INDEX 01 00:20:65
  TRACK 37 AUDIO
    TITLE "0:"
    INDEX 01 00:21:60
  TRACK 38 AUDIO
    TITLE "10:cjc026_07887"
    INDEX 01 00:22:15
  TRACK 39 AUDIO
    TITLE "0:"
    INDEX 01 00:23:08
  TRACK 40 AUDIO
    TITLE "11:cjc026_07888"
    INDEX 01 00:23:36
  TRACK 41 AUDIO
    TITLE "0:"
    INDEX 01 00:24:24
  TRACK 42 AUDIO
    TITLE "12:cjc026_07889"
    INDEX 01 00:24:49
  TRACK 43 AUDIO
    TITLE "0:"
    INDEX 01 00:25:43
  TRACK 44 AUDIO
    TITLE "10:cjc026_07890"
    INDEX 01 00:25:70
  TRACK 45 AUDIO
    TITLE "0:"
    INDEX 01 00:26:64
  TRACK 46 AUDIO
    TITLE "11:cjc026_07891"
    INDEX 01 00:27:14
  TRACK 47 AUDIO
    TITLE "0:"
    INDEX 01 00:28:08
  TRACK 48 AUDIO
    TITLE "12:cjc026_07892"
    INDEX 01 00:28:33
  TRACK 49 AUDIO
    TITLE "0:"
    INDEX 01 00:29:27
  TRACK 50 AUDIO
    TITLE "10:cjc026_07893"
    INDEX 01 00:29:52
  TRACK 51 AUDIO
    TITLE "0:"
    INDEX 01 00:30:38
  TRACK 52 AUDIO
    TITLE "11:cjc026_07894"
    INDEX 01 00:30:63
  TRACK 53 AUDIO
    TITLE "0:"
    INDEX 01 00:31:47
  TRACK 54 AUDIO
    TITLE "12:cjc026_07895"
    INDEX 01 00:31:71
  TRACK 55 AUDIO
    TITLE "0:"
    INDEX 01 00:32:56
  TRACK 56 AUDIO
    TITLE "10:cjc026_07896"
    INDEX 01 00:33:07
  TRACK 57 AUDIO
    TITLE "0:"
    INDEX 01 00:33:73
  TRACK 58 AUDIO
    TITLE "11:cjc026_07897"
    INDEX 01 00:34:24
  TRACK 59 AUDIO
    TITLE "0:"
    INDEX 01 00:35:23
  TRACK 60 AUDIO
    TITLE "12:cjc026_07898"
    INDEX 01 00:35:49
  TRACK 61 AUDIO
    TITLE "0:"
    INDEX 01 00:36:38
  TRACK 62 AUDIO
    TITLE "10:cjc026_07899"
    INDEX 01 00:36:64
  TRACK 63 AUDIO
    TITLE "0:"
    INDEX 01 00:37:54
  TRACK 64 AUDIO
    TITLE "11:cjc026_07900"
    INDEX 01 00:38:04
  TRACK 65 AUDIO
    TITLE "0:"
    INDEX 01 00:38:69
  TRACK 66 AUDIO
    TITLE "12:cjc026_07901"
    INDEX 01 00:39:21
  TRACK 67 AUDIO
    TITLE "0:"
    INDEX 01 00:40:09
